<svg width="21" height="21" viewBox="0 0 21 21" fill="none" xmlns="http://www.w3.org/2000/svg">
<path d="M5.26723 0.349748C5.26723 0.360062 5.22391 0.365688 5.03094 0.383503C4.94726 0.391004 4.86259 0.401318 4.84388 0.406007C4.82518 0.410695 4.78481 0.417258 4.75527 0.421009C4.68537 0.42851 4.50816 0.46039 4.44515 0.477268C4.41857 0.484769 4.37131 0.494145 4.34177 0.499771C4.31224 0.504459 4.26793 0.515711 4.2443 0.523212C4.22067 0.531651 4.19409 0.538215 4.18425 0.538215C4.16653 0.538215 3.76582 0.662922 3.67229 0.697615C3.64276 0.708866 3.60042 0.723869 3.57876 0.73137C3.53643 0.745435 3.50492 0.758562 3.43601 0.790442C3.41139 0.800756 3.38776 0.810132 3.38284 0.810132C3.3789 0.810132 3.28734 0.851389 3.18101 0.902022C2.72911 1.11674 2.40422 1.32021 1.98383 1.65401C1.88045 1.73559 1.45021 2.14347 1.3872 2.22035C1.36357 2.24848 1.3173 2.30287 1.28481 2.34037C1.08594 2.56916 0.855556 2.89171 0.713783 3.14018C0.693108 3.17581 0.666526 3.2227 0.654712 3.24332C0.631083 3.28177 0.578903 3.38116 0.556259 3.43085C0.548383 3.44586 0.522785 3.50024 0.498172 3.55087C0.473558 3.60151 0.452883 3.64745 0.452883 3.65214C0.452883 3.65776 0.444022 3.67746 0.434177 3.69621C0.423347 3.71496 0.402672 3.76278 0.388889 3.80122C0.374121 3.83967 0.358368 3.87999 0.353446 3.8903C0.342616 3.9128 0.309142 4.00563 0.290436 4.06377C0.18903 4.37788 0.13685 4.56259 0.123066 4.65448C0.120113 4.67792 0.110267 4.72387 0.102391 4.75762C0.0807314 4.85139 0.0511955 5.05017 0.0393812 5.17488C0.0265823 5.3174 0.0196906 5.35772 0.00886076 5.35772C0.00393812 5.35772 0 7.51243 0 10.3413C0 13.2321 0.00393812 15.3249 0.00886076 15.3249C0.0196906 15.3249 0.0255977 15.3662 0.0443038 15.5499C0.05218 15.6296 0.0630098 15.7103 0.0679325 15.7281C0.0728551 15.7459 0.0797468 15.7843 0.0836849 15.8125C0.0905766 15.8744 0.124051 16.0413 0.142757 16.1125C0.177215 16.2382 0.199859 16.3263 0.206751 16.361C0.217581 16.4107 0.342616 16.7689 0.387904 16.8814C0.42827 16.9789 0.440084 17.0061 0.471589 17.0689C0.482419 17.0924 0.492264 17.1149 0.492264 17.1196C0.492264 17.1233 0.535584 17.2105 0.588748 17.3118C0.817159 17.7478 1.02391 18.0469 1.37834 18.452C1.46399 18.5504 1.89226 18.9592 1.97201 19.0202C2.00253 19.0427 2.08228 19.1036 2.15021 19.1552C2.4121 19.3549 2.71435 19.549 2.94374 19.6634C2.97918 19.6812 3.02546 19.7056 3.04712 19.7178C3.0865 19.7393 3.1879 19.7881 3.24402 19.8115C3.26076 19.819 3.31688 19.8434 3.37004 19.8669C3.42321 19.8903 3.47243 19.91 3.47834 19.91C3.48523 19.91 3.5 19.9166 3.5128 19.9241C3.52461 19.9325 3.55316 19.9447 3.57581 19.9522C3.6398 19.9719 3.7038 19.9934 3.73629 20.0075C3.75302 20.015 3.77665 20.0234 3.79044 20.0263C3.80422 20.03 3.8308 20.0384 3.84951 20.0459C3.9834 20.0947 4.41955 20.2091 4.52883 20.2241C4.55345 20.2269 4.60169 20.2354 4.63713 20.2429C4.74149 20.2644 4.94923 20.2935 5.07525 20.3038C5.22489 20.316 5.26723 20.3226 5.26723 20.3329C5.26723 20.3376 7.52968 20.3413 10.5 20.3413C13.5353 20.3413 15.7328 20.3376 15.7328 20.3329C15.7328 20.3226 15.7761 20.3169 15.9691 20.2991C16.0527 20.2916 16.1374 20.2813 16.1561 20.2766C16.1748 20.2719 16.2152 20.2654 16.2447 20.2616C16.3146 20.2541 16.4918 20.2222 16.5549 20.2053C16.5824 20.1978 16.6287 20.1885 16.6582 20.1828C16.6878 20.1782 16.7321 20.1669 16.7557 20.1594C16.7793 20.151 16.8059 20.1444 16.8158 20.1444C16.8335 20.1444 17.2342 20.0197 17.3277 19.985C17.3572 19.9738 17.3996 19.9587 17.4212 19.9512C17.4636 19.9372 17.4951 19.9241 17.564 19.8922C17.5886 19.8819 17.6122 19.8725 17.6172 19.8725C17.628 19.8725 18.0553 19.669 18.071 19.6568C18.0779 19.6512 18.1045 19.6362 18.1311 19.6231C18.1577 19.6099 18.1951 19.5893 18.2138 19.5781C18.2325 19.5659 18.2837 19.5359 18.327 19.5115C18.515 19.4027 18.7641 19.2293 19.0162 19.0286C19.1195 18.947 19.5498 18.5392 19.6128 18.4623C19.6364 18.4341 19.6827 18.3798 19.7152 18.3422C19.9141 18.1135 20.1444 17.7909 20.2862 17.5424C20.3069 17.5059 20.3335 17.4599 20.3453 17.4393C20.3689 17.4008 20.4211 17.3015 20.4437 17.2518C20.4516 17.2358 20.4772 17.1824 20.5018 17.1317C20.5264 17.0811 20.5471 17.0352 20.5471 17.0305C20.5471 17.0249 20.556 17.0052 20.5658 16.9864C20.5767 16.9677 20.5973 16.9198 20.6111 16.8814C20.6259 16.8429 20.6416 16.8026 20.6466 16.7923C20.6574 16.7698 20.6909 16.677 20.7096 16.6189C20.811 16.3047 20.8631 16.12 20.8769 16.0281C20.8799 16.0047 20.8897 15.9587 20.8976 15.925C20.9193 15.8312 20.9488 15.6324 20.9606 15.5077C20.9734 15.3652 20.9803 15.3249 20.9911 15.3249C20.9961 15.3249 21 13.1702 21 10.3413C21 7.45054 20.9961 5.35772 20.9911 5.35772C20.9803 5.35772 20.9744 5.31646 20.9557 5.13268C20.9478 5.05298 20.937 4.97235 20.9321 4.95453C20.9271 4.93671 20.9203 4.89827 20.9163 4.87014C20.9094 4.80826 20.8759 4.64136 20.8572 4.57009C20.8228 4.44445 20.8001 4.35631 20.7932 4.32162C20.7824 4.27192 20.6574 3.91374 20.6121 3.80122C20.5717 3.70371 20.5599 3.67652 20.5284 3.6137C20.5176 3.59025 20.5077 3.56775 20.5077 3.56306C20.5077 3.54994 20.3177 3.19175 20.2577 3.0933C20.0657 2.77544 19.9269 2.58603 19.6669 2.28224C19.5557 2.15284 19.1284 1.7384 19.028 1.66245C18.9975 1.63995 18.9177 1.579 18.8498 1.52743C18.6224 1.35397 18.4402 1.23301 18.2138 1.10643C18.1518 1.07174 18.0937 1.03892 18.0858 1.03423C18.0779 1.02954 18.0533 1.01735 18.0316 1.00704C18.01 0.996724 17.9745 0.977971 17.9529 0.965782C17.9145 0.944216 17.816 0.896396 17.756 0.871079C17.7402 0.863578 17.6831 0.839199 17.63 0.815758C17.5768 0.792317 17.5276 0.772626 17.5217 0.772626C17.5148 0.772626 17.5 0.766063 17.4872 0.758562C17.4754 0.750123 17.4468 0.737933 17.4242 0.730432C17.3602 0.710742 17.2962 0.689176 17.2637 0.675111C17.248 0.66761 17.2233 0.659171 17.2096 0.656358C17.1958 0.652608 17.1692 0.644169 17.1505 0.636668C17.0166 0.58791 16.5804 0.473517 16.4712 0.458515C16.4466 0.455702 16.3983 0.447263 16.3629 0.439762C16.2585 0.418196 16.0508 0.389129 15.9248 0.378815C15.7751 0.366625 15.7328 0.360062 15.7328 0.349748C15.7328 0.34506 13.4703 0.341309 10.5 0.341309C7.4647 0.341309 5.26723 0.34506 5.26723 0.349748ZM16.6336 2.94422C16.6937 2.95265 16.7685 2.96766 16.801 2.97703C16.8335 2.98547 16.8758 2.99672 16.8945 3.00047C16.9132 3.00329 16.9349 3.00985 16.9437 3.01454C16.9516 3.01829 17.0048 3.04173 17.0619 3.06517C17.2578 3.14768 17.3415 3.19832 17.5138 3.34272C17.8731 3.64464 18.0759 4.0722 18.0799 4.53259C18.0809 4.68918 18.0612 4.84576 18.0257 4.95078C18.0159 4.98172 18.007 5.01454 18.007 5.02392C18.007 5.03235 17.9982 5.05767 17.9873 5.0783C17.9765 5.09986 17.9677 5.12237 17.9677 5.12893C17.9677 5.15894 17.817 5.42242 17.7579 5.49555C17.6615 5.6137 17.6388 5.63995 17.5719 5.7009C17.437 5.82467 17.3159 5.90812 17.1633 5.98219C16.992 6.06564 16.8935 6.0994 16.7124 6.1369C16.5952 6.16034 16.2693 6.17253 16.165 6.15659C16.0586 6.13971 15.9858 6.12471 15.9395 6.11065C15.9149 6.10408 15.8755 6.09189 15.8509 6.08439C15.7633 6.05908 15.7082 6.03939 15.6934 6.02813C15.6855 6.02157 15.6678 6.01313 15.654 6.00938C15.6333 6.00282 15.594 5.98407 15.5014 5.93531C15.4394 5.90249 15.3281 5.82373 15.2661 5.76934C15.2444 5.74965 15.2228 5.73278 15.2188 5.73278C15.2149 5.73278 15.1686 5.68496 15.1155 5.62682C14.8969 5.39054 14.765 5.1355 14.703 4.83264C14.6764 4.70418 14.6764 4.36381 14.703 4.25598C14.7325 4.13315 14.7748 3.99532 14.7916 3.96531C14.8004 3.94937 14.8073 3.93156 14.8073 3.92499C14.8073 3.91843 14.827 3.87624 14.8516 3.83123C15.0229 3.51618 15.2444 3.2949 15.5634 3.12424C15.6087 3.09986 15.656 3.07736 15.6668 3.07361C15.6875 3.06798 15.7131 3.05767 15.8145 3.01454C15.8401 3.00423 15.8696 2.99485 15.8795 2.99485C15.8893 2.99485 15.9257 2.98735 15.9602 2.97703C16.0173 2.96109 16.1827 2.9339 16.2792 2.92546C16.3471 2.9189 16.5204 2.92828 16.6336 2.94422ZM10.8889 4.87952C11.1527 4.90015 11.5525 4.95078 11.6096 4.97141C11.6233 4.97703 11.6637 4.98453 11.6982 4.98829C11.7316 4.9911 11.774 4.99954 11.7907 5.0061C11.8075 5.01266 11.8409 5.0211 11.8646 5.02485C11.9413 5.0361 12.09 5.07736 12.3312 5.15519C12.5478 5.22457 12.535 5.21988 12.6748 5.27708C12.7063 5.29114 12.7378 5.30146 12.7447 5.30146C12.7526 5.30146 12.793 5.31834 12.8353 5.33803C12.8776 5.35866 12.9633 5.39897 13.0253 5.4271C13.1444 5.48242 13.3089 5.564 13.3502 5.59025C13.364 5.59869 13.3886 5.61276 13.4044 5.62026C13.4615 5.65026 13.552 5.70465 13.744 5.82654C13.8444 5.88936 13.9892 5.99063 14.0591 6.04689C14.0847 6.06752 14.1359 6.10783 14.1733 6.13596C14.2097 6.16409 14.2757 6.21941 14.319 6.25786C14.3633 6.2963 14.4273 6.35069 14.4608 6.37881C14.5277 6.43414 14.8083 6.71918 14.9018 6.82701C15.0987 7.05392 15.3331 7.36428 15.4177 7.51149C15.4256 7.52649 15.4492 7.564 15.4699 7.59494C15.4896 7.62682 15.5063 7.65495 15.5063 7.65776C15.5063 7.66152 15.5181 7.67933 15.5319 7.69902C15.5644 7.74403 15.7525 8.10877 15.7525 8.12565C15.7525 8.13221 15.7594 8.14722 15.7672 8.15753C15.784 8.18097 15.8804 8.40694 15.8804 8.42288C15.8804 8.42945 15.8873 8.44633 15.8952 8.45945C15.9543 8.56072 16.1059 9.08955 16.1571 9.37553C16.163 9.40648 16.1738 9.46555 16.1817 9.5068C16.1906 9.54806 16.2014 9.62776 16.2063 9.68496C16.2113 9.74122 16.2201 9.81529 16.226 9.84904C16.2418 9.94562 16.2487 10.5279 16.2359 10.6882C16.2103 11.0145 16.1551 11.3718 16.0951 11.5978C16.0321 11.8378 16.0242 11.8612 15.9454 12.0853C15.8726 12.2916 15.8775 12.2794 15.8174 12.4126C15.8027 12.4426 15.7918 12.4716 15.7918 12.4763C15.7918 12.4913 15.6333 12.8036 15.5546 12.9433C15.4158 13.1889 15.1617 13.5565 15.0091 13.7318C14.9875 13.7572 14.9451 13.805 14.9156 13.8397C14.7138 14.0722 14.4145 14.3563 14.1605 14.5579C13.9675 14.7107 13.6141 14.9508 13.4713 15.0249C13.4556 15.0324 13.4162 15.0549 13.3837 15.0745C13.3502 15.0933 13.3207 15.1092 13.3177 15.1092C13.3138 15.1092 13.2951 15.1205 13.2744 15.1336C13.234 15.1599 12.8461 15.3437 12.8314 15.3437C12.8264 15.3437 12.792 15.3577 12.7536 15.3755C12.6916 15.4046 12.6404 15.4243 12.5429 15.4562C12.5242 15.4627 12.4956 15.474 12.4789 15.4805C12.4415 15.4965 12.3775 15.5181 12.3017 15.5396C12.2692 15.5499 12.2298 15.5612 12.2131 15.5668C12.0329 15.6249 11.647 15.7131 11.4648 15.7375C11.4323 15.7422 11.3812 15.7506 11.3516 15.7562C11.3221 15.7618 11.2532 15.7703 11.199 15.775C11.1449 15.7797 11.0366 15.79 10.9578 15.7984C10.7914 15.8144 10.3021 15.8172 10.1111 15.8031C9.84726 15.7825 9.44754 15.7318 9.39044 15.7112C9.37665 15.7056 9.33629 15.6981 9.30183 15.6943C9.26835 15.6915 9.22602 15.6831 9.20928 15.6765C9.19255 15.67 9.15907 15.6615 9.13544 15.6578C9.05865 15.6465 8.90999 15.6053 8.66878 15.5274C8.45218 15.458 8.46498 15.4627 8.32518 15.4055C8.29367 15.3915 8.26217 15.3812 8.25527 15.3812C8.2474 15.3812 8.20703 15.3643 8.1647 15.3446C8.12236 15.324 8.03671 15.2836 7.97468 15.2555C7.85556 15.2002 7.69114 15.1186 7.64979 15.0924C7.63601 15.0839 7.61238 15.0699 7.59564 15.0624C7.53165 15.0286 7.29733 14.8861 7.25105 14.8514C7.24121 14.8439 7.22939 14.8373 7.22644 14.8373C7.21955 14.8373 7.0128 14.692 6.93797 14.6348C6.57173 14.3526 6.23404 14.0291 5.97018 13.7056C5.83432 13.5387 5.64037 13.2724 5.58228 13.1711C5.5744 13.1561 5.55077 13.1186 5.5301 13.0877C5.51041 13.0558 5.49367 13.0277 5.49367 13.0249C5.49367 13.0211 5.48186 13.0033 5.46807 12.9836C5.43558 12.9386 5.24754 12.5738 5.24754 12.557C5.24754 12.5504 5.24065 12.5354 5.23277 12.5251C5.21603 12.5016 5.11955 12.2757 5.11955 12.2597C5.11955 12.2532 5.11266 12.2363 5.10478 12.2232C5.04571 12.1219 4.89409 11.5931 4.8429 11.3071C4.83699 11.2761 4.82616 11.2171 4.81828 11.1758C4.80942 11.1346 4.79958 11.0586 4.79466 11.007C4.78973 10.9555 4.7789 10.8523 4.77004 10.7773C4.75331 10.6189 4.75035 10.1528 4.76512 9.97094C4.7917 9.65589 4.84684 9.3024 4.90492 9.08486C4.96793 8.84483 4.97581 8.82138 5.05457 8.59729C5.12743 8.391 5.1225 8.40319 5.18256 8.27005C5.19733 8.24004 5.20816 8.21098 5.20816 8.20629C5.20816 8.19129 5.36667 7.87905 5.44543 7.73934C5.58129 7.49836 5.86582 7.08768 5.99775 6.94328C6.01547 6.92359 6.05485 6.87858 6.08439 6.84295C6.11392 6.80826 6.17201 6.74543 6.21238 6.70418C6.25274 6.66198 6.30985 6.60104 6.33938 6.56916C6.39747 6.5054 6.69676 6.23817 6.80999 6.14909C7.04824 5.96156 7.37412 5.7384 7.52869 5.65776C7.54444 5.65026 7.58383 5.62776 7.61631 5.60807C7.64979 5.58932 7.67932 5.57338 7.68228 5.57338C7.68622 5.57338 7.70492 5.56212 7.7256 5.549C7.76596 5.52274 8.15387 5.33896 8.16864 5.33896C8.17356 5.33896 8.20802 5.3249 8.24641 5.30708C8.30844 5.27802 8.35963 5.25833 8.4571 5.22645C8.47581 5.21988 8.50534 5.20863 8.5211 5.20207C8.55851 5.18613 8.6225 5.16456 8.69831 5.143C8.7308 5.13268 8.77117 5.12143 8.78692 5.1158C8.96709 5.05767 9.35302 4.96953 9.53516 4.94515C9.56765 4.94047 9.61885 4.93203 9.64838 4.9264C9.67792 4.92077 9.7488 4.91234 9.80591 4.90671C9.86301 4.90202 9.96442 4.89171 10.0323 4.88514C10.181 4.87014 10.7136 4.86639 10.8889 4.87952Z" fill="white"/>
<path d="M16.3476 4.1076C16.1527 4.1301 16.0001 4.24731 15.9391 4.42171C15.9095 4.5061 15.9145 4.62143 15.9519 4.70863C16.0237 4.87647 16.1891 4.98148 16.3821 4.98242C16.5071 4.98242 16.6066 4.94398 16.6981 4.85771C16.768 4.79208 16.8074 4.72457 16.8291 4.6308C16.8458 4.55954 16.8458 4.5511 16.8301 4.47609C16.8212 4.43202 16.8045 4.37764 16.7927 4.3542C16.7651 4.29794 16.6548 4.19011 16.5977 4.16292C16.519 4.12448 16.4077 4.1001 16.3476 4.1076Z" fill="white"/>
<path d="M10.2002 6.05702C10.1923 6.0589 10.1057 6.06921 10.0082 6.07859C9.82705 6.09734 9.67839 6.11891 9.59963 6.13673C9.57502 6.14235 9.51791 6.15454 9.47164 6.16485C9.3023 6.19955 8.89963 6.31769 8.86615 6.34207C8.86123 6.34582 8.83859 6.35426 8.81693 6.36082C8.79527 6.36739 8.74801 6.38708 8.71158 6.40395C8.67516 6.42177 8.63971 6.43583 8.63381 6.43583C8.62298 6.43583 8.45068 6.51647 8.38374 6.55398C8.36208 6.56523 8.31974 6.58773 8.28922 6.60274C8.10118 6.69838 7.79203 6.90559 7.56165 7.09125C7.20033 7.38286 6.85181 7.78136 6.61552 8.17236C6.60666 8.18642 6.59485 8.20424 6.58894 8.2108C6.57122 8.23049 6.36053 8.63649 6.36053 8.65056C6.36053 8.65712 6.35167 8.67681 6.34084 8.69369C6.33001 8.71056 6.32115 8.72932 6.32115 8.73494C6.32115 8.74057 6.31327 8.76307 6.30244 8.7837C6.28374 8.82308 6.26011 8.88684 6.23845 8.95341C6.23254 8.97404 6.21974 9.00967 6.21088 9.03311C6.20202 9.05656 6.18627 9.10438 6.17544 9.14094C6.16461 9.17657 6.14787 9.2319 6.13901 9.26284C6.08584 9.43255 6.04056 9.69884 6.0061 10.0364C5.98936 10.2042 5.99428 10.553 6.01594 10.7481C6.03662 10.9281 6.06911 11.1381 6.08683 11.2038C6.09274 11.2244 6.10554 11.2769 6.11538 11.321C6.15181 11.4794 6.27586 11.8657 6.30146 11.8976C6.30539 11.9023 6.31426 11.9239 6.32115 11.9445C6.32804 11.9651 6.34871 12.0111 6.36644 12.0458C6.38514 12.0805 6.39991 12.1142 6.39991 12.1189C6.39991 12.1302 6.48753 12.2989 6.52396 12.3571C6.53676 12.3777 6.55251 12.4049 6.5594 12.418C6.58697 12.4715 6.66475 12.5905 6.76123 12.7274C6.90202 12.9272 6.89611 12.9197 7.04773 13.0931C7.20722 13.276 7.38542 13.4494 7.54196 13.5741C7.60399 13.6248 7.66208 13.6707 7.66995 13.6782C7.73985 13.7382 8.06573 13.9586 8.10708 13.9745C8.1189 13.9783 8.14942 13.997 8.17698 14.0158C8.20357 14.0345 8.23015 14.0495 8.23507 14.0495C8.23999 14.0495 8.25181 14.0551 8.25968 14.0627C8.26855 14.0702 8.33943 14.1058 8.41819 14.1433C8.49696 14.1799 8.56784 14.2136 8.57572 14.2183C8.60919 14.2371 8.71651 14.2839 8.72537 14.2839C8.73127 14.2839 8.75195 14.2914 8.77164 14.3018C8.81693 14.3233 8.90652 14.358 8.94492 14.3683C8.97248 14.3758 9.00793 14.3871 9.12213 14.4255C9.33577 14.4968 9.73156 14.5793 9.97867 14.6027C10.2612 14.629 10.3242 14.6318 10.5714 14.6281C10.8736 14.6234 11.2103 14.5896 11.4013 14.5455C11.4259 14.5399 11.483 14.5277 11.5293 14.5174C11.6986 14.4827 12.1013 14.3646 12.1348 14.3402C12.1407 14.3364 12.1624 14.328 12.184 14.3214C12.2057 14.3149 12.2529 14.2952 12.2894 14.2783C12.3258 14.2605 12.3612 14.2464 12.3671 14.2464C12.378 14.2464 12.5503 14.1658 12.6172 14.1283C12.6389 14.117 12.6812 14.0945 12.7107 14.0795C12.9076 13.9792 13.202 13.7823 13.4393 13.591C13.7996 13.3003 14.1501 12.9009 14.3854 12.5099C14.3943 12.4958 14.4061 12.478 14.412 12.4715C14.4278 12.4536 14.6404 12.0448 14.6404 12.0326C14.6404 12.027 14.6483 12.0064 14.6591 11.9876C14.669 11.9689 14.6896 11.922 14.7044 11.8836C14.7192 11.8451 14.7399 11.7935 14.7497 11.7692C14.7605 11.7448 14.7684 11.7195 14.7684 11.7129C14.7684 11.7063 14.7773 11.6801 14.7871 11.6538C14.7979 11.6285 14.8147 11.5769 14.8255 11.5413C14.8363 11.5048 14.8531 11.4504 14.8619 11.4194C14.9151 11.2497 14.9604 10.9834 14.9948 10.6459C15.0116 10.478 15.0067 10.1292 14.985 9.93419C14.9643 9.75417 14.9318 9.54413 14.9141 9.4785C14.9082 9.45787 14.8954 9.40536 14.8856 9.36129C14.8491 9.20283 14.7251 8.81652 14.6995 8.78464C14.6955 8.77901 14.6867 8.75838 14.6798 8.73776C14.6729 8.71713 14.6522 8.67118 14.6345 8.63649C14.6158 8.6018 14.601 8.56804 14.601 8.56335C14.601 8.55304 14.5193 8.39551 14.478 8.32519C14.4662 8.30456 14.4415 8.26237 14.4238 8.23143C14.3805 8.15735 14.288 8.01858 14.2092 7.90794C14.0015 7.61914 13.715 7.31253 13.459 7.10813C13.397 7.05749 13.3389 7.01155 13.331 7.00405C13.264 6.94685 12.9332 6.72182 12.8988 6.70963C12.8899 6.70681 12.8584 6.689 12.8289 6.67118C12.7669 6.6318 12.755 6.62524 12.6822 6.5868C12.6536 6.57086 12.6202 6.55585 12.6083 6.5521C12.5975 6.54929 12.5808 6.54085 12.5729 6.53429C12.565 6.52772 12.5473 6.51929 12.5335 6.51553C12.5197 6.51178 12.502 6.50334 12.4941 6.49678C12.4863 6.49022 12.4685 6.48178 12.4548 6.47803C12.441 6.47428 12.4233 6.46584 12.4154 6.46021C12.4075 6.45365 12.3721 6.43771 12.3366 6.42271C12.3012 6.40864 12.2549 6.38895 12.2332 6.38051C12.1564 6.3477 12.0856 6.32144 12.056 6.31394C12.0285 6.30644 11.993 6.29519 11.8788 6.25674C11.7971 6.22955 11.5825 6.17329 11.4702 6.15079C11.3294 6.12172 11.1296 6.08984 11.0173 6.07953C10.9553 6.0739 10.8647 6.06453 10.8155 6.05984C10.7309 6.05234 10.2317 6.04952 10.2002 6.05702Z" fill="white"/>
</svg>
