<svg width="244" height="51" viewBox="0 0 244 51" fill="none" xmlns="http://www.w3.org/2000/svg">
<path d="M19.5972 46.8469C14.3629 46.8561 6.24663 46.3865 6.24663 45.696C6.24663 45.0054 18.6765 44.545 18.6765 44.545V42.9338C18.6765 42.9338 13.4928 41.3225 11.191 39.7112C8.88913 38.0999 7.03846 36.1664 5.55608 34.1868C1.76267 29.1228 0.0316984 21.5268 0.0316984 13.7006C0.0316984 5.87438 -0.548362 0.667647 3.25425 0.349995C6.70699 0.0645687 7.02005 6.90559 11.0805 7.25547C19.1369 7.94602 25.1216 -0.570735 28.3442 3.57255C31.2859 7.35215 23.5103 13.01 22.8198 18.9948C22.5574 21.292 22.5896 23.5984 24.2009 24.7493C25.3518 25.5734 30.4158 24.0588 32.0271 23.3683C33.6384 22.6777 39.6231 21.9872 39.3929 28.6624C39.1627 35.3377 33.3299 40.6872 26.0423 42.4734C23.851 43.012 20.2878 42.9338 20.2878 42.9338V44.545C20.2878 44.545 32.7176 45.0054 32.7176 45.696C32.7176 46.3865 24.7395 46.8377 19.5972 46.8469Z" fill="white"/>
<path d="M5.78613 3.1123C5.78613 3.1123 7.39741 21.0573 7.39741 23.8287C7.39741 27.5117 11.7479 23.7459 14.5331 23.5986C22.4514 23.1842 25.3517 31.4248 31.7968 33.9568C33.0536 34.4494 35.2495 34.1869 35.2495 34.1869" stroke="url(#paint0_radial_56_171)" stroke-width="2" stroke-linecap="round"/>
<path d="M142.561 48.8403C141.825 48.8403 141.217 48.5917 140.734 48.0945C140.25 47.5927 140.011 46.8838 140.011 45.963C140.011 45.0377 140.25 44.3333 140.734 43.8454C141.217 43.3528 141.848 43.1088 142.626 43.1088C143.408 43.1088 144.044 43.362 144.536 43.8592C145.029 44.3564 145.277 45.0193 145.277 45.8433V46.0965C145.277 46.2301 145.208 46.2991 145.075 46.2991H140.931C140.987 46.9114 141.171 47.3718 141.475 47.6756C141.783 47.9794 142.17 48.1314 142.644 48.1314C143.39 48.1314 143.928 47.8275 144.265 47.2198C144.306 47.1554 144.343 47.1232 144.389 47.1232H145.029C145.116 47.1232 145.148 47.1646 145.13 47.2429C144.996 47.7308 144.716 48.1176 144.301 48.4122C143.878 48.6976 143.298 48.8403 142.561 48.8403ZM140.931 45.5901H144.37C144.343 45.0607 144.159 44.6326 143.827 44.3103C143.496 43.9835 143.095 43.8223 142.635 43.8223C142.174 43.8223 141.792 43.9743 141.484 44.2735C141.171 44.5681 140.987 45.0101 140.931 45.5901ZM147.616 48.5825V43.3666C147.616 43.2975 147.648 43.2607 147.717 43.2607H148.274C148.339 43.2607 148.376 43.2975 148.385 43.3666L148.477 43.919C148.518 43.8638 148.601 43.7809 148.735 43.6658C148.868 43.5507 148.997 43.4587 149.121 43.3896C149.444 43.2055 149.821 43.1134 150.249 43.1134C150.931 43.1134 151.492 43.3251 151.925 43.7487C152.362 44.1722 152.579 44.7523 152.579 45.4935V48.5825C152.579 48.647 152.546 48.6792 152.482 48.6792H151.768C151.704 48.6792 151.667 48.647 151.667 48.5825V45.4935C151.667 44.9594 151.529 44.5451 151.253 44.2551C150.977 43.9651 150.627 43.8177 150.199 43.8177C150.005 43.8177 149.812 43.8546 149.619 43.9328C149.43 44.0065 149.273 44.094 149.149 44.1952C149.025 44.2919 148.914 44.3978 148.818 44.5037C148.624 44.7108 148.527 44.8397 148.527 44.8858V48.5871C148.527 48.6516 148.495 48.6838 148.431 48.6838H147.717C147.648 48.6792 147.616 48.647 147.616 48.5825ZM153.292 49.6736C153.292 49.5907 153.325 49.5631 153.394 49.5907C153.73 49.7242 154.066 49.7933 154.406 49.7933C155.148 49.7933 155.52 49.2869 155.52 48.2741V43.362C155.52 43.2975 155.557 43.2607 155.626 43.2561H156.335C156.4 43.2561 156.437 43.2929 156.437 43.362V48.2741C156.437 48.9784 156.262 49.5217 155.912 49.9176C155.566 50.3089 155.097 50.5068 154.508 50.5068C154.158 50.5068 153.836 50.4562 153.536 50.3549L153.394 50.3043C153.329 50.2721 153.292 50.226 153.292 50.1708V49.6736ZM155.447 42.4458V41.7875C155.447 41.7093 155.461 41.6586 155.493 41.631C155.525 41.6034 155.576 41.585 155.649 41.585H156.308C156.381 41.585 156.437 41.6034 156.464 41.6356C156.496 41.6678 156.51 41.7185 156.51 41.7875V42.4458C156.51 42.5241 156.496 42.5747 156.464 42.6024C156.437 42.63 156.381 42.6484 156.308 42.6484H155.649C155.571 42.6484 155.52 42.6346 155.493 42.6024C155.465 42.5747 155.447 42.5241 155.447 42.4458ZM161.376 48.8311C160.589 48.8311 159.954 48.5825 159.466 48.0899C158.982 47.5927 158.743 46.8838 158.743 45.963C158.743 45.0377 158.982 44.3333 159.466 43.8454C159.949 43.3528 160.589 43.1088 161.376 43.1088C162.168 43.1088 162.803 43.3528 163.287 43.8454C163.77 44.3333 164.014 45.0377 164.014 45.963C164.014 46.8838 163.77 47.5927 163.287 48.0899C162.803 48.5871 162.168 48.8311 161.376 48.8311ZM161.376 43.8177C160.865 43.8177 160.451 43.9973 160.129 44.3564C159.811 44.7108 159.655 45.2449 159.655 45.9584C159.655 46.672 159.811 47.2106 160.129 47.5743C160.451 47.938 160.865 48.1175 161.376 48.1175C161.892 48.1175 162.306 47.938 162.624 47.5743C162.946 47.2106 163.103 46.672 163.103 45.9584C163.103 45.2449 162.942 44.7108 162.624 44.3564C162.306 43.9973 161.892 43.8177 161.376 43.8177ZM165.446 43.362C165.441 43.3482 165.437 43.3343 165.437 43.3205C165.437 43.2791 165.464 43.2561 165.524 43.2561H166.206C166.284 43.2561 166.334 43.2929 166.353 43.362L167.481 46.6029C167.628 47.0219 167.798 47.3211 167.992 47.5007C168.185 47.6802 168.447 47.7677 168.779 47.7677L169.944 43.362C169.962 43.2929 170.013 43.2561 170.096 43.2561H170.772C170.837 43.2561 170.864 43.2791 170.864 43.3205C170.864 43.3343 170.86 43.3482 170.855 43.362L169.506 48.4766C169.318 49.1856 169.069 49.7012 168.756 50.0189C168.447 50.3411 168.038 50.5022 167.536 50.5022C167.181 50.5022 166.859 50.4516 166.56 50.3503L166.422 50.2997C166.353 50.2628 166.316 50.2168 166.316 50.1662V49.6736C166.316 49.5907 166.353 49.5631 166.422 49.5907C166.758 49.7242 167.089 49.7933 167.412 49.7933C167.739 49.7933 167.987 49.7012 168.157 49.5124C168.328 49.3237 168.475 48.9784 168.599 48.4812C168.07 48.4812 167.665 48.3431 167.375 48.0669C167.085 47.7907 166.818 47.2981 166.574 46.5983L165.446 43.362ZM175.735 43.362C175.726 43.3482 175.726 43.3343 175.726 43.3205C175.726 43.2791 175.758 43.2561 175.813 43.2561H176.495C176.573 43.2561 176.624 43.2929 176.642 43.362L177.77 46.6029C177.917 47.0219 178.088 47.3211 178.281 47.5007C178.474 47.6802 178.732 47.7677 179.068 47.7677L180.228 43.362C180.247 43.2929 180.297 43.2561 180.38 43.2561H181.057C181.121 43.2561 181.149 43.2791 181.149 43.3205C181.149 43.3343 181.144 43.3482 181.14 43.362L179.791 48.4766C179.602 49.1856 179.354 49.7012 179.04 50.0189C178.732 50.3411 178.322 50.5022 177.821 50.5022C177.466 50.5022 177.144 50.4516 176.845 50.3503L176.706 50.2997C176.637 50.2628 176.601 50.2168 176.601 50.1662V49.6736C176.601 49.5907 176.637 49.5631 176.706 49.5907C177.043 49.7242 177.374 49.7933 177.696 49.7933C178.023 49.7933 178.272 49.7012 178.442 49.5124C178.612 49.3237 178.76 48.9784 178.884 48.4812C178.355 48.4812 177.949 48.3431 177.659 48.0669C177.369 47.7907 177.102 47.2981 176.858 46.5983L175.735 43.362ZM185.311 48.8311C184.523 48.8311 183.888 48.5825 183.4 48.0899C182.921 47.5927 182.677 46.8838 182.677 45.963C182.677 45.0377 182.917 44.3333 183.4 43.8454C183.884 43.3528 184.519 43.1088 185.311 43.1088C186.102 43.1088 186.738 43.3528 187.221 43.8454C187.705 44.3333 187.949 45.0377 187.949 45.963C187.949 46.8838 187.705 47.5927 187.221 48.0899C186.738 48.5871 186.098 48.8311 185.311 48.8311ZM185.311 43.8177C184.8 43.8177 184.385 43.9973 184.063 44.3564C183.745 44.7108 183.589 45.2449 183.589 45.9584C183.589 46.672 183.745 47.2106 184.063 47.5743C184.381 47.938 184.8 48.1175 185.311 48.1175C185.826 48.1175 186.241 47.938 186.558 47.5743C186.876 47.2106 187.037 46.672 187.037 45.9584C187.037 45.2449 186.876 44.7108 186.558 44.3564C186.236 43.9973 185.822 43.8177 185.311 43.8177ZM190.278 46.4464V43.362C190.278 43.2975 190.31 43.2607 190.379 43.2561H191.093C191.157 43.2561 191.194 43.2929 191.194 43.362V46.4464C191.194 46.9804 191.332 47.3948 191.608 47.6848C191.885 47.9748 192.235 48.1222 192.663 48.1222C192.856 48.1222 193.049 48.0853 193.238 48.0117C193.432 47.938 193.588 47.8505 193.712 47.7493C193.837 47.648 193.952 47.5421 194.048 47.4362C194.242 47.229 194.334 47.1001 194.334 47.0541V43.362C194.334 43.2975 194.366 43.2607 194.431 43.2561H195.144C195.209 43.2561 195.245 43.2929 195.245 43.362V48.5779C195.245 48.6424 195.213 48.6746 195.144 48.6746H194.587C194.523 48.6746 194.486 48.6424 194.477 48.5779L194.384 48.0209C194.343 48.0853 194.256 48.1728 194.122 48.2833C193.993 48.3938 193.869 48.4812 193.74 48.5503C193.409 48.739 193.036 48.8311 192.612 48.8311C191.931 48.8311 191.369 48.6193 190.936 48.1958C190.499 47.7723 190.278 47.1922 190.278 46.4464ZM197.98 48.5825V43.3666C197.98 43.2975 198.012 43.2607 198.077 43.2607H198.634C198.698 43.2607 198.735 43.2975 198.744 43.3666L198.836 44.2275L198.914 44.1124C198.951 44.0663 199.034 43.9789 199.163 43.8546C199.297 43.7303 199.439 43.6198 199.6 43.5323C199.762 43.4402 199.973 43.3574 200.236 43.2791C200.498 43.2008 200.774 43.1594 201.064 43.1594H201.469C201.539 43.1594 201.571 43.1916 201.571 43.2561V43.8638C201.571 43.9328 201.539 43.9696 201.469 43.9696H201.166C200.834 43.9696 200.53 44.0111 200.254 44.0986C199.978 44.1814 199.757 44.2827 199.591 44.3978C199.26 44.6418 199.043 44.8582 198.942 45.0515L198.882 45.1804V48.5779C198.882 48.6424 198.85 48.6746 198.786 48.6746H198.072C198.017 48.6792 197.98 48.647 197.98 48.5825ZM205.281 49.6736C205.281 49.5907 205.314 49.5631 205.378 49.5907C205.714 49.7242 206.055 49.7933 206.391 49.7933C207.132 49.7933 207.505 49.2869 207.505 48.2741V43.362C207.505 43.2975 207.542 43.2607 207.611 43.2561H208.32C208.384 43.2561 208.421 43.2929 208.426 43.362V48.2741C208.426 48.9784 208.251 49.5217 207.901 49.9176C207.556 50.3089 207.086 50.5068 206.497 50.5068C206.147 50.5068 205.825 50.4562 205.525 50.3549L205.383 50.3043C205.318 50.2721 205.286 50.226 205.286 50.1708V49.6736H205.281ZM207.436 42.4458V41.7875C207.436 41.7093 207.45 41.6586 207.482 41.631C207.509 41.6034 207.565 41.585 207.638 41.585H208.297C208.375 41.585 208.426 41.6034 208.453 41.6356C208.481 41.6678 208.499 41.7185 208.499 41.7875V42.4458C208.499 42.5241 208.485 42.5747 208.453 42.6024C208.421 42.63 208.37 42.6484 208.297 42.6484H207.638C207.565 42.6484 207.509 42.6346 207.482 42.6024C207.45 42.5747 207.436 42.5241 207.436 42.4458ZM213.361 48.8311C212.574 48.8311 211.938 48.5825 211.45 48.0899C210.971 47.5927 210.727 46.8838 210.727 45.963C210.727 45.0377 210.967 44.3333 211.45 43.8454C211.934 43.3528 212.569 43.1088 213.361 43.1088C214.153 43.1088 214.788 43.3528 215.271 43.8454C215.755 44.3333 215.999 45.0377 215.999 45.963C215.999 46.8838 215.755 47.5927 215.271 48.0899C214.788 48.5871 214.153 48.8311 213.361 48.8311ZM213.361 43.8177C212.85 43.8177 212.435 43.9973 212.113 44.3564C211.795 44.7108 211.639 45.2449 211.639 45.9584C211.639 46.672 211.795 47.2106 212.113 47.5743C212.431 47.938 212.85 48.1175 213.361 48.1175C213.876 48.1175 214.291 47.938 214.608 47.5743C214.931 47.2106 215.087 46.672 215.087 45.9584C215.087 45.2449 214.926 44.7108 214.608 44.3564C214.291 43.9973 213.876 43.8177 213.361 43.8177ZM218.333 48.2234V41.6908C218.333 41.6264 218.365 41.5896 218.429 41.585H219.143C219.207 41.585 219.244 41.6172 219.244 41.6908V43.4126C219.682 43.2101 220.188 43.1088 220.763 43.1088C221.523 43.1088 222.145 43.3574 222.628 43.85C223.111 44.3426 223.351 45.0469 223.351 45.9676C223.351 46.8838 223.107 47.5927 222.623 48.0899C222.144 48.5825 221.505 48.8311 220.713 48.8311C220.28 48.8311 219.866 48.7805 219.465 48.6792C219.065 48.5779 218.775 48.4766 218.595 48.38L218.333 48.2234ZM219.244 47.8183C219.244 47.8229 219.304 47.8505 219.419 47.9012C219.534 47.9472 219.705 47.9978 219.935 48.0439C220.165 48.0945 220.395 48.1175 220.616 48.1175C221.178 48.1175 221.62 47.938 221.947 47.5789C222.273 47.2152 222.435 46.6766 222.435 45.963C222.435 45.2495 222.273 44.7108 221.951 44.3564C221.629 43.9973 221.205 43.8177 220.685 43.8177C220.165 43.8177 219.686 43.919 219.244 44.1216V47.8183Z" fill="white"/>
<path d="M54.5025 39.0711C53.6186 39.0711 52.7531 38.9238 51.9014 38.6245C51.0636 38.3253 50.304 37.8834 49.6318 37.2987L52.5644 33.7861C52.7761 33.9518 53.0385 34.113 53.3608 34.2649C53.6831 34.4214 54.0605 34.4951 54.5025 34.4951C55.0641 34.4951 55.5752 34.357 56.0263 34.0807C56.4913 33.7953 56.8596 33.4178 57.1358 32.9528C57.412 32.4787 57.5501 31.9631 57.5501 31.4106V16.817L62.1262 15.436V31.4106C62.1262 32.8147 61.7855 34.0946 61.0995 35.2547C60.4136 36.4056 59.4929 37.3263 58.3327 38.0215C57.1818 38.7212 55.9066 39.0711 54.5025 39.0711ZM77.9719 15.0723C71.4439 15.0723 66.7022 20.3757 66.7022 27.0372C66.7022 33.7309 71.4439 39.0343 77.9719 39.0343C84.4677 39.0343 89.2094 33.7309 89.2094 27.0372C89.2094 20.3757 84.4677 15.0723 77.9719 15.0723ZM77.9719 34.8956C74.1601 34.8956 71.1125 31.3508 71.1125 27.0418C71.1125 22.765 74.1601 19.2202 77.9719 19.2202C81.7515 19.2202 84.7991 22.765 84.7991 27.0418C84.7991 31.3462 81.7515 34.8956 77.9719 34.8956ZM107.578 26.54C107.444 26.6044 107.444 26.6735 107.578 26.7379C109.677 27.8198 110.727 29.6198 110.727 32.1426C110.727 34.2879 110 35.9084 108.54 37.0133C107.081 38.0951 105.17 38.6384 102.804 38.6384H94.2182C94.1077 38.6384 94.0064 38.6061 93.919 38.5371C93.8545 38.4496 93.8177 38.3483 93.8177 38.2378V15.8319C93.8177 15.7214 93.8499 15.6339 93.919 15.5649C94.0064 15.4774 94.1077 15.4313 94.2182 15.4313H102.537C107.776 15.4313 110.391 17.5536 110.391 21.7936C110.395 24.0126 109.456 25.5916 107.578 26.54ZM98.6607 19.4457C98.5502 19.4457 98.495 19.501 98.495 19.6115V24.7814C98.495 24.8919 98.5502 24.9471 98.6607 24.9471H102.537C103.577 24.9471 104.383 24.7031 104.959 24.2197C105.534 23.7317 105.819 23.0688 105.819 22.2309C105.819 21.3701 105.534 20.6933 104.959 20.2099C104.383 19.7035 103.577 19.4457 102.537 19.4457H98.6607ZM102.804 34.5964C103.821 34.5964 104.618 34.3432 105.189 33.8321C105.764 33.3027 106.05 32.5846 106.05 31.6776C106.05 30.7707 105.764 30.0664 105.189 29.5554C104.613 29.0259 103.808 28.7589 102.767 28.7589H98.6561C98.5456 28.7589 98.4904 28.8142 98.4904 28.9247V34.426C98.4904 34.5365 98.5456 34.5917 98.6561 34.5917H102.804V34.5964ZM131.08 19.7127V15.6339H114.373V19.7127H120.537V38.6384H124.911V19.7127H131.08ZM140.839 21.2366C135.172 20.5414 131.825 23.9205 131.825 28.7589V38.6384H136.199V28.7589C136.199 26.3374 138.054 24.8458 140.839 25.343V21.2366ZM152.27 21.1399C147.528 21.1399 143.684 25.0162 143.684 30.1216C143.684 35.2271 147.528 39.0389 152.27 39.0389C157.012 39.0389 160.888 35.2271 160.888 30.1216C160.888 25.0162 157.012 21.1399 152.27 21.1399ZM152.27 35.0245C149.95 35.0245 148.062 33.0357 148.062 30.1538C148.062 27.2029 149.95 25.1497 152.27 25.1497C154.59 25.1497 156.478 27.2029 156.478 30.1538C156.478 33.0357 154.59 35.0245 152.27 35.0245ZM179.952 38.6384H175.974V28.9615C175.974 28.0546 175.799 27.3824 175.445 26.9405C175.114 26.4755 174.695 26.1671 174.184 26.0105C173.696 25.854 173.221 25.7804 172.756 25.7804C172.315 25.7804 171.794 25.8586 171.2 26.0105C170.625 26.1671 170.119 26.4755 169.677 26.9405C169.235 27.3824 169.014 28.0546 169.014 28.9615V38.6384H165.036V22.0652H169.014V23.2576C169.391 22.7512 169.976 22.3967 170.772 22.1987C171.569 21.9777 172.328 21.8673 173.06 21.8673C174.474 21.8673 175.689 22.1665 176.706 22.7604C177.747 23.3588 178.539 24.1875 179.091 25.2463C179.667 26.3052 179.952 27.5436 179.952 28.9569V38.6384ZM189.003 33.9657H184.298V38.6384H189.003V33.9657ZM201.285 21.1399C196.544 21.1399 192.7 25.0162 192.7 30.1216C192.7 35.2271 196.544 39.0389 201.285 39.0389C206.027 39.0389 209.903 35.2271 209.903 30.1216C209.903 25.0162 206.027 21.1399 201.285 21.1399ZM201.285 35.0245C198.965 35.0245 197.078 33.0357 197.078 30.1538C197.078 27.2029 198.965 25.1497 201.285 25.1497C203.606 25.1497 205.493 27.2029 205.493 30.1538C205.498 33.0357 203.606 35.0245 201.285 35.0245ZM223.263 21.2366C217.596 20.5414 214.249 23.9205 214.249 28.7589V38.6384H218.623V28.7589C218.623 26.3374 220.478 24.8458 223.263 25.343V21.2366ZM243.809 30.1216C243.809 25.1819 240.195 21.1399 235.058 21.1399C229.888 21.1399 226.274 25.1819 226.274 30.1216C226.274 35.0291 229.952 39.0066 234.459 39.0066C236.384 39.0066 238.138 38.3437 239.431 37.0823V37.8465C239.431 40.8941 238.041 42.9198 234.956 42.9198C233.764 42.9198 232.005 42.3903 231.444 41.0323H226.67C227.333 44.6461 230.845 46.9986 234.956 46.9986C240.426 46.9986 243.805 43.4538 243.805 37.7821V30.1216H243.809ZM239.431 30.1538C239.431 32.8055 237.475 34.96 235.058 34.96C232.636 34.96 230.684 32.87 230.684 30.1538C230.684 27.3364 232.641 25.2463 235.058 25.2463C237.475 25.2463 239.431 27.4377 239.431 30.1538Z" fill="white"/>
<defs>
<radialGradient id="paint0_radial_56_171" cx="0" cy="0" r="1" gradientUnits="userSpaceOnUse" gradientTransform="translate(11.2967 23.8122) rotate(120.041) scale(22.07 20.8785)">
<stop stop-color="#424D53"/>
<stop offset="1" stop-color="white" stop-opacity="0.44"/>
</radialGradient>
</defs>
</svg>
