<svg width="244" height="51" viewBox="0 0 244 51" fill="none" xmlns="http://www.w3.org/2000/svg">
<path d="M19.5972 46.5056C14.3629 46.5148 6.24663 46.0452 6.24663 45.3546C6.24663 44.6641 18.6765 44.2037 18.6765 44.2037V42.5925C18.6765 42.5925 13.4928 40.9812 11.191 39.3699C8.88913 37.7586 7.03846 35.8251 5.55608 33.8455C1.76267 28.7815 0.0316984 21.1855 0.0316984 13.3593C0.0316984 5.53307 -0.548362 0.326338 3.25425 0.00868648C6.70699 -0.27674 7.02005 6.56429 11.0805 6.91416C19.1369 7.60471 25.1216 -0.912044 28.3442 3.23124C31.2859 7.01084 23.5103 12.6687 22.8198 18.6535C22.5574 20.9507 22.5896 23.2571 24.2009 24.408C25.3518 25.2321 30.4158 23.7175 32.0271 23.0269C33.6384 22.3364 39.6231 21.6458 39.3929 28.3211C39.1627 34.9964 33.3299 40.3459 26.0423 42.1321C23.851 42.6707 20.2878 42.5925 20.2878 42.5925V44.2037C20.2878 44.2037 32.7176 44.6641 32.7176 45.3546C32.7176 46.0452 24.7395 46.4964 19.5972 46.5056Z" fill="#6F4F28"/>
<path d="M5.78711 2.77087C5.78711 2.77087 7.39839 20.7159 7.39839 23.4873C7.39839 27.1702 11.7488 23.4044 14.5341 23.2571C22.4523 22.8428 25.3526 31.0833 31.7977 33.6153C33.0545 34.1079 35.2505 33.8455 35.2505 33.8455" stroke="url(#paint0_radial_75_1180)" stroke-width="2" stroke-linecap="round"/>
<path d="M142.56 48.499C141.824 48.499 141.216 48.2504 140.733 47.7532C140.249 47.2514 140.01 46.5424 140.01 45.6217C140.01 44.6963 140.249 43.992 140.733 43.504C141.216 43.0114 141.847 42.7674 142.625 42.7674C143.407 42.7674 144.043 43.0206 144.535 43.5178C145.028 44.015 145.276 44.6779 145.276 45.502V45.7552C145.276 45.8887 145.207 45.9577 145.074 45.9577H140.93C140.986 46.57 141.17 47.0304 141.474 47.3342C141.782 47.6381 142.169 47.79 142.643 47.79C143.389 47.79 143.927 47.4861 144.264 46.8785C144.305 46.814 144.342 46.7818 144.388 46.7818H145.028C145.115 46.7818 145.147 46.8232 145.129 46.9015C144.996 47.3895 144.715 47.7762 144.3 48.0708C143.877 48.3562 143.297 48.499 142.56 48.499ZM140.93 45.2488H144.369C144.342 44.7194 144.158 44.2912 143.826 43.969C143.495 43.6421 143.094 43.481 142.634 43.481C142.173 43.481 141.791 43.6329 141.483 43.9321C141.17 44.2268 140.986 44.6687 140.93 45.2488ZM147.615 48.2411V43.0252C147.615 42.9561 147.647 42.9193 147.716 42.9193H148.273C148.338 42.9193 148.375 42.9561 148.384 43.0252L148.476 43.5776C148.517 43.5224 148.6 43.4395 148.734 43.3244C148.867 43.2093 148.996 43.1173 149.12 43.0482C149.443 42.8641 149.82 42.772 150.248 42.772C150.93 42.772 151.491 42.9838 151.924 43.4073C152.361 43.8308 152.578 44.4109 152.578 45.1521V48.2411C152.578 48.3056 152.545 48.3378 152.481 48.3378H151.767C151.703 48.3378 151.666 48.3056 151.666 48.2411V45.1521C151.666 44.6181 151.528 44.2037 151.252 43.9137C150.976 43.6237 150.626 43.4764 150.198 43.4764C150.004 43.4764 149.811 43.5132 149.618 43.5915C149.429 43.6651 149.272 43.7526 149.148 43.8539C149.024 43.9505 148.913 44.0564 148.817 44.1623C148.623 44.3695 148.527 44.4984 148.527 44.5444V48.2457C148.527 48.3102 148.494 48.3424 148.43 48.3424H147.716C147.647 48.3378 147.615 48.3056 147.615 48.2411ZM153.291 49.3322C153.291 49.2493 153.324 49.2217 153.393 49.2493C153.729 49.3829 154.065 49.4519 154.405 49.4519C155.147 49.4519 155.519 48.9455 155.519 47.9327V43.0206C155.519 42.9562 155.556 42.9193 155.625 42.9147H156.334C156.399 42.9147 156.436 42.9516 156.436 43.0206V47.9327C156.436 48.6371 156.261 49.1803 155.911 49.5762C155.565 49.9675 155.096 50.1655 154.507 50.1655C154.157 50.1655 153.835 50.1148 153.535 50.0136L153.393 49.9629C153.328 49.9307 153.291 49.8846 153.291 49.8294V49.3322V49.3322ZM155.446 42.1045V41.4462C155.446 41.3679 155.46 41.3173 155.492 41.2896C155.524 41.262 155.575 41.2436 155.648 41.2436H156.307C156.38 41.2436 156.436 41.262 156.463 41.2942C156.495 41.3265 156.509 41.3771 156.509 41.4462V42.1045C156.509 42.1827 156.495 42.2334 156.463 42.261C156.436 42.2886 156.38 42.307 156.307 42.307H155.648C155.57 42.307 155.519 42.2932 155.492 42.261C155.464 42.2334 155.446 42.1827 155.446 42.1045ZM161.375 48.4897C160.588 48.4897 159.953 48.2411 159.465 47.7486C158.981 47.2514 158.742 46.5424 158.742 45.6217C158.742 44.6963 158.981 43.992 159.465 43.504C159.948 43.0114 160.588 42.7674 161.375 42.7674C162.167 42.7674 162.802 43.0114 163.286 43.504C163.769 43.992 164.013 44.6963 164.013 45.6217C164.013 46.5424 163.769 47.2514 163.286 47.7486C162.802 48.2457 162.167 48.4897 161.375 48.4897ZM161.375 43.4764C160.864 43.4764 160.45 43.6559 160.128 44.015C159.81 44.3695 159.654 44.9035 159.654 45.6171C159.654 46.3306 159.81 46.8693 160.128 47.2329C160.45 47.5966 160.864 47.7762 161.375 47.7762C161.891 47.7762 162.305 47.5966 162.623 47.2329C162.945 46.8693 163.102 46.3306 163.102 45.6171C163.102 44.9035 162.941 44.3695 162.623 44.015C162.305 43.6559 161.891 43.4764 161.375 43.4764ZM165.445 43.0206C165.44 43.0068 165.436 42.993 165.436 42.9792C165.436 42.9377 165.463 42.9147 165.523 42.9147H166.205C166.283 42.9147 166.333 42.9516 166.352 43.0206L167.48 46.2616C167.627 46.6805 167.797 46.9797 167.991 47.1593C168.184 47.3388 168.447 47.4263 168.778 47.4263L169.943 43.0206C169.961 42.9516 170.012 42.9147 170.095 42.9147H170.771C170.836 42.9147 170.863 42.9377 170.863 42.9792C170.863 42.993 170.859 43.0068 170.854 43.0206L169.505 48.1353C169.317 48.8442 169.068 49.3598 168.755 49.6775C168.447 49.9997 168.037 50.1609 167.535 50.1609C167.181 50.1609 166.858 50.1102 166.559 50.0089L166.421 49.9583C166.352 49.9215 166.315 49.8754 166.315 49.8248V49.3322C166.315 49.2493 166.352 49.2217 166.421 49.2493C166.757 49.3829 167.088 49.4519 167.411 49.4519C167.738 49.4519 167.986 49.3598 168.156 49.1711C168.327 48.9823 168.474 48.6371 168.598 48.1399C168.069 48.1399 167.664 48.0018 167.374 47.7255C167.084 47.4493 166.817 46.9567 166.573 46.257L165.445 43.0206ZM175.734 43.0206C175.725 43.0068 175.725 42.993 175.725 42.9792C175.725 42.9377 175.757 42.9147 175.812 42.9147H176.494C176.572 42.9147 176.623 42.9516 176.641 43.0206L177.769 46.2616C177.916 46.6805 178.087 46.9797 178.28 47.1593C178.473 47.3388 178.731 47.4263 179.067 47.4263L180.227 43.0206C180.246 42.9516 180.296 42.9147 180.379 42.9147H181.056C181.12 42.9147 181.148 42.9377 181.148 42.9792C181.148 42.993 181.143 43.0068 181.139 43.0206L179.79 48.1353C179.601 48.8442 179.353 49.3598 179.04 49.6775C178.731 49.9997 178.321 50.1609 177.82 50.1609C177.465 50.1609 177.143 50.1102 176.844 50.0089L176.705 49.9583C176.636 49.9215 176.6 49.8754 176.6 49.8248V49.3322C176.6 49.2493 176.636 49.2217 176.705 49.2493C177.042 49.3829 177.373 49.4519 177.695 49.4519C178.022 49.4519 178.271 49.3598 178.441 49.1711C178.611 48.9823 178.759 48.6371 178.883 48.1399C178.354 48.1399 177.948 48.0018 177.658 47.7255C177.368 47.4493 177.101 46.9567 176.857 46.257L175.734 43.0206ZM185.31 48.4897C184.522 48.4897 183.887 48.2411 183.399 47.7486C182.92 47.2514 182.676 46.5424 182.676 45.6217C182.676 44.6963 182.916 43.992 183.399 43.504C183.883 43.0114 184.518 42.7674 185.31 42.7674C186.102 42.7674 186.737 43.0114 187.22 43.504C187.704 43.992 187.948 44.6963 187.948 45.6217C187.948 46.5424 187.704 47.2514 187.22 47.7486C186.737 48.2457 186.097 48.4897 185.31 48.4897ZM185.31 43.4764C184.799 43.4764 184.384 43.6559 184.062 44.015C183.744 44.3695 183.588 44.9035 183.588 45.6171C183.588 46.3306 183.744 46.8693 184.062 47.2329C184.38 47.5966 184.799 47.7762 185.31 47.7762C185.825 47.7762 186.24 47.5966 186.557 47.2329C186.875 46.8693 187.036 46.3306 187.036 45.6171C187.036 44.9035 186.875 44.3695 186.557 44.015C186.235 43.6559 185.821 43.4764 185.31 43.4764ZM190.277 46.105V43.0206C190.277 42.9562 190.309 42.9193 190.378 42.9147H191.092C191.156 42.9147 191.193 42.9516 191.193 43.0206V46.105C191.193 46.6391 191.331 47.0534 191.607 47.3434C191.884 47.6335 192.234 47.7808 192.662 47.7808C192.855 47.7808 193.048 47.7439 193.237 47.6703C193.431 47.5966 193.587 47.5092 193.711 47.4079C193.836 47.3066 193.951 47.2007 194.047 47.0948C194.241 46.8877 194.333 46.7588 194.333 46.7127V43.0206C194.333 42.9562 194.365 42.9193 194.43 42.9147H195.143C195.208 42.9147 195.244 42.9516 195.244 43.0206V48.2365C195.244 48.301 195.212 48.3332 195.143 48.3332H194.586C194.522 48.3332 194.485 48.301 194.476 48.2365L194.383 47.6795C194.342 47.744 194.255 47.8314 194.121 47.9419C193.992 48.0524 193.868 48.1399 193.739 48.2089C193.408 48.3977 193.035 48.4897 192.611 48.4897C191.93 48.4897 191.368 48.278 190.935 47.8544C190.498 47.4309 190.277 46.8508 190.277 46.105ZM197.979 48.2411V43.0252C197.979 42.9561 198.011 42.9193 198.076 42.9193H198.633C198.697 42.9193 198.734 42.9561 198.743 43.0252L198.835 43.8861L198.913 43.771C198.95 43.725 199.033 43.6375 199.162 43.5132C199.296 43.3889 199.438 43.2784 199.599 43.1909C199.761 43.0989 199.972 43.016 200.235 42.9377C200.497 42.8595 200.773 42.818 201.063 42.818H201.469C201.538 42.818 201.57 42.8503 201.57 42.9147V43.5224C201.57 43.5915 201.538 43.6283 201.469 43.6283H201.165C200.833 43.6283 200.529 43.6697 200.253 43.7572C199.977 43.84 199.756 43.9413 199.59 44.0564C199.259 44.3004 199.042 44.5168 198.941 44.7101L198.881 44.839V48.2365C198.881 48.301 198.849 48.3332 198.785 48.3332H198.071C198.016 48.3378 197.979 48.3056 197.979 48.2411ZM205.28 49.3322C205.28 49.2493 205.313 49.2217 205.377 49.2493C205.713 49.3829 206.054 49.4519 206.39 49.4519C207.131 49.4519 207.504 48.9455 207.504 47.9327V43.0206C207.504 42.9562 207.541 42.9193 207.61 42.9147H208.319C208.383 42.9147 208.42 42.9516 208.425 43.0206V47.9327C208.425 48.6371 208.25 49.1803 207.9 49.5762C207.555 49.9675 207.085 50.1655 206.496 50.1655C206.146 50.1655 205.824 50.1148 205.524 50.0136L205.382 49.9629C205.317 49.9307 205.285 49.8846 205.285 49.8294V49.3322H205.28ZM207.435 42.1045V41.4462C207.435 41.3679 207.449 41.3173 207.481 41.2896C207.509 41.262 207.564 41.2436 207.637 41.2436H208.296C208.374 41.2436 208.425 41.262 208.452 41.2942C208.48 41.3265 208.498 41.3771 208.498 41.4462V42.1045C208.498 42.1827 208.484 42.2334 208.452 42.261C208.42 42.2886 208.369 42.307 208.296 42.307H207.637C207.564 42.307 207.509 42.2932 207.481 42.261C207.449 42.2334 207.435 42.1827 207.435 42.1045ZM213.36 48.4897C212.573 48.4897 211.937 48.2411 211.449 47.7486C210.97 47.2514 210.726 46.5424 210.726 45.6217C210.726 44.6963 210.966 43.992 211.449 43.504C211.933 43.0114 212.568 42.7674 213.36 42.7674C214.152 42.7674 214.787 43.0114 215.27 43.504C215.754 43.992 215.998 44.6963 215.998 45.6217C215.998 46.5424 215.754 47.2514 215.27 47.7486C214.787 48.2457 214.152 48.4897 213.36 48.4897ZM213.36 43.4764C212.849 43.4764 212.434 43.6559 212.112 44.015C211.795 44.3695 211.638 44.9035 211.638 45.6171C211.638 46.3306 211.795 46.8693 212.112 47.2329C212.43 47.5966 212.849 47.7762 213.36 47.7762C213.875 47.7762 214.29 47.5966 214.607 47.2329C214.93 46.8693 215.086 46.3306 215.086 45.6171C215.086 44.9035 214.925 44.3695 214.607 44.015C214.29 43.6559 213.875 43.4764 213.36 43.4764ZM218.332 47.8821V41.3495C218.332 41.285 218.364 41.2482 218.428 41.2436H219.142C219.206 41.2436 219.243 41.2758 219.243 41.3495V43.0712C219.681 42.8687 220.187 42.7674 220.762 42.7674C221.522 42.7674 222.144 43.016 222.627 43.5086C223.11 44.0012 223.35 44.7055 223.35 45.6263C223.35 46.5424 223.106 47.2514 222.622 47.7486C222.144 48.2411 221.504 48.4897 220.712 48.4897C220.279 48.4897 219.865 48.4391 219.464 48.3378C219.064 48.2365 218.774 48.1353 218.594 48.0386L218.332 47.8821ZM219.243 47.4769C219.243 47.4815 219.303 47.5092 219.418 47.5598C219.533 47.6058 219.704 47.6565 219.934 47.7025C220.164 47.7532 220.394 47.7762 220.615 47.7762C221.177 47.7762 221.619 47.5966 221.946 47.2375C222.272 46.8739 222.434 46.3352 222.434 45.6217C222.434 44.9081 222.272 44.3695 221.95 44.015C221.628 43.6559 221.204 43.4764 220.684 43.4764C220.164 43.4764 219.685 43.5776 219.243 43.7802V47.4769Z" fill="#6F4F28"/>
<path d="M54.5015 38.73C53.6176 38.73 52.7521 38.5827 51.9005 38.2835C51.0626 37.9842 50.303 37.5423 49.6309 36.9576L52.5634 33.445C52.7752 33.6108 53.0376 33.7719 53.3598 33.9238C53.6821 34.0804 54.0596 34.154 54.5015 34.154C55.0632 34.154 55.5742 34.0159 56.0253 33.7397C56.4903 33.4543 56.8586 33.0768 57.1348 32.6118C57.411 32.1376 57.5491 31.622 57.5491 31.0696V16.476L62.1252 15.0949V31.0696C62.1252 32.4737 61.7845 33.7535 61.0986 34.9136C60.4126 36.0645 59.4919 36.9853 58.3318 37.6804C57.1808 38.3802 55.9056 38.73 54.5015 38.73ZM77.9709 14.7312C71.443 14.7312 66.7012 20.0346 66.7012 26.6961C66.7012 33.3898 71.443 38.6932 77.9709 38.6932C84.4667 38.6932 89.2084 33.3898 89.2084 26.6961C89.2084 20.0346 84.4667 14.7312 77.9709 14.7312ZM77.9709 34.5545C74.1591 34.5545 71.1115 31.0097 71.1115 26.7007C71.1115 22.4239 74.1591 18.8791 77.9709 18.8791C81.7505 18.8791 84.7982 22.4239 84.7982 26.7007C84.7982 31.0051 81.7505 34.5545 77.9709 34.5545ZM107.577 26.1989C107.444 26.2634 107.444 26.3324 107.577 26.3969C109.676 27.4787 110.726 29.2787 110.726 31.8015C110.726 33.9468 109.999 35.5673 108.539 36.6722C107.08 37.7541 105.169 38.2973 102.803 38.2973H94.2172C94.1067 38.2973 94.0055 38.2651 93.918 38.196C93.8535 38.1085 93.8167 38.0073 93.8167 37.8968V15.4908C93.8167 15.3803 93.8489 15.2929 93.918 15.2238C94.0055 15.1363 94.1067 15.0903 94.2172 15.0903H102.536C107.775 15.0903 110.39 17.2126 110.39 21.4525C110.394 23.6715 109.455 25.2505 107.577 26.1989ZM98.6597 19.1047C98.5493 19.1047 98.494 19.1599 98.494 19.2704V24.4403C98.494 24.5508 98.5493 24.606 98.6597 24.606H102.536C103.576 24.606 104.382 24.362 104.958 23.8787C105.533 23.3907 105.818 22.7277 105.818 21.8899C105.818 21.029 105.533 20.3523 104.958 19.8689C104.382 19.3625 103.576 19.1047 102.536 19.1047H98.6597V19.1047ZM102.803 34.2553C103.82 34.2553 104.617 34.0021 105.188 33.4911C105.763 32.9617 106.049 32.2435 106.049 31.3366C106.049 30.4297 105.763 29.7253 105.188 29.2143C104.612 28.6849 103.807 28.4179 102.766 28.4179H98.6551C98.5446 28.4179 98.4894 28.4731 98.4894 28.5836V34.085C98.4894 34.1954 98.5446 34.2507 98.6551 34.2507H102.803V34.2553ZM131.079 19.3717V15.2928H114.372V19.3717H120.536V38.2973H124.91V19.3717H131.079V19.3717ZM140.838 20.8955C135.171 20.2003 131.824 23.5794 131.824 28.4179V38.2973H136.198V28.4179C136.198 25.9963 138.053 24.5048 140.838 25.0019V20.8955ZM152.269 20.7988C147.528 20.7988 143.683 24.6751 143.683 29.7805C143.683 34.886 147.528 38.6978 152.269 38.6978C157.011 38.6978 160.887 34.886 160.887 29.7805C160.887 24.6751 157.011 20.7988 152.269 20.7988ZM152.269 34.6834C149.949 34.6834 148.062 32.6947 148.062 29.8128C148.062 26.8618 149.949 24.8086 152.269 24.8086C154.59 24.8086 156.477 26.8618 156.477 29.8128C156.477 32.6947 154.59 34.6834 152.269 34.6834ZM179.951 38.2973H175.973V28.6204C175.973 27.7135 175.799 27.0414 175.444 26.5994C175.113 26.1344 174.694 25.826 174.183 25.6695C173.695 25.513 173.22 25.4393 172.756 25.4393C172.314 25.4393 171.793 25.5176 171.199 25.6695C170.624 25.826 170.118 26.1344 169.676 26.5994C169.234 27.0414 169.013 27.7135 169.013 28.6204V38.2973H165.035V21.7241H169.013V22.9165C169.39 22.4101 169.975 22.0556 170.771 21.8577C171.568 21.6367 172.327 21.5262 173.059 21.5262C174.473 21.5262 175.688 21.8254 176.705 22.4193C177.746 23.0178 178.538 23.8464 179.09 24.9053C179.666 25.9641 179.951 27.2025 179.951 28.6158V38.2973ZM189.002 33.6246H184.297V38.2973H189.002V33.6246ZM201.284 20.7988C196.543 20.7988 192.699 24.6751 192.699 29.7805C192.699 34.886 196.543 38.6978 201.284 38.6978C206.026 38.6978 209.902 34.886 209.902 29.7805C209.902 24.6751 206.026 20.7988 201.284 20.7988ZM201.284 34.6834C198.964 34.6834 197.077 32.6947 197.077 29.8128C197.077 26.8618 198.964 24.8086 201.284 24.8086C203.605 24.8086 205.492 26.8618 205.492 29.8128C205.497 32.6947 203.605 34.6834 201.284 34.6834ZM223.262 20.8955C217.595 20.2003 214.248 23.5794 214.248 28.4179V38.2973H218.622V28.4179C218.622 25.9963 220.477 24.5048 223.262 25.0019V20.8955ZM243.808 29.7805C243.808 24.8408 240.194 20.7988 235.057 20.7988C229.887 20.7988 226.273 24.8408 226.273 29.7805C226.273 34.688 229.951 38.6656 234.458 38.6656C236.383 38.6656 238.137 38.0027 239.43 36.7413V37.5055C239.43 40.5531 238.04 42.5787 234.955 42.5787C233.763 42.5787 232.004 42.0493 231.443 40.6912H226.669C227.332 44.3051 230.844 46.6575 234.955 46.6575C240.425 46.6575 243.804 43.1127 243.804 37.441V29.7805H243.808ZM239.43 29.8128C239.43 32.4645 237.474 34.619 235.057 34.619C232.635 34.619 230.683 32.5289 230.683 29.8128C230.683 26.9953 232.64 24.9053 235.057 24.9053C237.474 24.9053 239.43 27.0966 239.43 29.8128Z" fill="black"/>
<defs>
<radialGradient id="paint0_radial_75_1180" cx="0" cy="0" r="1" gradientUnits="userSpaceOnUse" gradientTransform="translate(11.2977 23.4707) rotate(120.041) scale(22.07 20.8785)">
<stop stop-color="white"/>
<stop offset="1" stop-color="white" stop-opacity="0.44"/>
</radialGradient>
</defs>
</svg>
