<svg width="23" height="20" viewBox="0 0 23 20" fill="none" xmlns="http://www.w3.org/2000/svg">
<path d="M21.4276 0.380879C19.9003 0.942402 1.05557 8.17931 0.777052 8.31408C-0.143846 8.74982 -0.251659 9.32482 0.516506 9.71564C0.592873 9.75607 1.86416 10.1604 3.35108 10.6231L6.05088 11.4631L12.1782 7.62678C15.5519 5.51994 18.3774 3.76799 18.4583 3.74103C18.6694 3.66916 18.8491 3.67365 18.93 3.759C18.9884 3.8174 18.9929 3.84435 18.9435 3.92971C18.9165 3.9881 16.6749 6.02306 13.9706 8.44885C11.2663 10.8791 9.04268 12.8826 9.03369 12.9051C9.02471 12.9276 8.93486 14.1404 8.83154 15.6004L8.64287 18.2508L8.84951 18.2238C8.96182 18.2104 9.13701 18.152 9.24033 18.0936C9.34815 18.0397 10.0489 17.4018 10.8081 16.6785C11.5628 15.9553 12.2097 15.3488 12.2411 15.3399C12.2726 15.3264 13.4765 16.1799 14.9185 17.2356C16.356 18.2912 17.6452 19.2031 17.7845 19.266C18.1483 19.4367 18.5526 19.4502 18.8177 19.311C19.0558 19.1852 19.2849 18.8707 19.3837 18.5428C19.4196 18.417 20.2462 14.6121 21.212 10.0885C22.8247 2.55959 22.973 1.83185 22.973 1.44103C22.973 1.07267 22.9595 0.982832 22.8606 0.789668C22.7933 0.65041 22.672 0.511152 22.5552 0.430293C22.2901 0.246113 21.8499 0.223652 21.4276 0.380879Z" fill="white"/>
</svg>
