<svg width="31" height="21" viewBox="0 0 31 21" fill="none" xmlns="http://www.w3.org/2000/svg">
<path d="M12.4426 0.433163C7.54434 0.523983 4.66836 0.748007 3.76621 1.11129C2.94883 1.4443 2.26465 2.06793 1.85899 2.83687C1.33223 3.8359 1.05371 6.02769 0.987113 9.69078C0.938676 12.6152 1.0961 15.2732 1.42911 16.9564C1.78633 18.791 2.77325 19.8384 4.47461 20.1957C6.02461 20.5226 10.1357 20.7164 15.5305 20.7103C21.0402 20.7103 24.9637 20.5287 26.6105 20.1957C27.1494 20.0867 27.9123 19.7052 28.3119 19.3541C28.7297 18.9847 29.1535 18.349 29.3291 17.8283C29.8135 16.3994 30.1102 12.2398 29.977 8.78863C29.7953 4.1023 29.4139 2.63101 28.1242 1.65621C27.5309 1.20816 27.1191 1.04469 26.1988 0.881208C25.0605 0.68746 22.3238 0.517927 19.4357 0.45738C16.0572 0.390779 14.8463 0.384726 12.4426 0.433163ZM16.3479 8.37691C18.3883 9.55152 20.0533 10.5384 20.0533 10.5687C20.0473 10.6171 12.6908 14.8978 12.6121 14.8978C12.6061 14.8978 12.5939 12.9482 12.5939 10.5687C12.5939 8.18922 12.6061 6.23961 12.6182 6.23961C12.6303 6.23961 14.3074 7.2023 16.3479 8.37691Z" fill="white"/>
</svg>
